<svg fill="none" xmlns="http://www.w3.org/2000/svg" viewBox="0 0 458 512"><path d="M201.741 0A256.473 256.473 0 0089.477 26.06 256.206 256.206 0 000 98.632c31.256 8.342 53.38 15.512 60.005 17.736.104-4.061.778-40.382.778-40.382s.086-.832.53-1.265c.572-.558 1.398-.39 1.398-.39 8.221 1.19 183.695 27.173 257.658 70.23 9.134 5.339 13.643 11.014 19.276 16.768 20.446 21.125 47.462 108.961 50.363 127.074.114.712-.766 1.485-1.142 1.778h-.01c-2.101 1.637-4.388 3.34-6.679 4.861-17.501 11.731-57.82 39.926-109.549 35.322-46.465-4.106-107.171-30.732-180.354-78.903 7.195 16.83 14.285 33.712 21.378 50.585 10.598 5.499 112.893 57.571 163.379 56.554 40.664-.846 84.155-20.66 101.554-31.121 0 0 3.823-2.302 5.487-1.017 1.82 1.404 1.317 3.557.886 5.754-1.071 4.99-3.507 14.093-5.165 18.414l-1.399 3.522c-1.991 5.33-3.903 10.285-7.589 13.336-10.25 9.311-26.609 16.718-52.242 27.848-39.621 17.314-103.904 28.325-163.586 27.946-21.376-.475-42.028-2.844-60.162-4.961-37.216-4.197-67.497-7.602-85.96 5.739a256.232 256.232 0 0086.911 64.833A256.481 256.481 0 00201.741 512c33.652 0 66.975-6.621 98.066-19.487a256.285 256.285 0 0083.137-55.493 255.99 255.99 0 0055.55-83.053 255.776 255.776 0 000-195.934 255.981 255.981 0 00-55.55-83.052 256.277 256.277 0 00-83.137-55.494A256.48 256.48 0 00201.741 0zm57.158 148.539c-20.058-.639-39.184 6.432-53.847 20.108-14.657 13.631-23.044 32.215-23.787 52.239-1.386 41.309 31.08 76.116 72.395 77.638 20.149.676 39.234-6.4 53.897-20.157 14.619-13.589 23.007-32.173 23.787-52.198 1.42-41.272-31.085-76.152-72.445-77.63zm-.629 22.093c28.905 1.024 51.535 25.281 50.562 54.148-.447 13.922-6.325 26.826-16.537 36.397-10.226 9.526-23.593 14.479-37.617 14.056-28.838-1.063-51.469-25.348-50.495-54.223.424-13.973 6.419-26.879 16.586-36.405 10.167-9.526 23.469-14.478 37.501-13.973zm8.566 26.251c-12.842 0-23.215 6.905-23.215 15.495 0 8.509 10.373 15.453 23.215 15.453 12.836 0 23.249-6.944 23.249-15.453 0-8.59-10.406-15.495-23.249-15.495z" fill="#73BA25"/></svg>